<?xml version="1.0" encoding="utf-8"?>
<svg viewBox="0 32 448 448" width="448" height="448" xmlns="http://www.w3.org/2000/svg" xmlns:xlink="http://www.w3.org/1999/xlink" xmlns:bx="https://boxy-svg.com">
  <defs>
    <linearGradient id="color-1-0" gradientUnits="userSpaceOnUse" x1="224" y1="32" x2="224" y2="480" xlink:href="#color-1"/>
    <linearGradient id="color-1" bx:pinned="true">
      <stop style="stop-color: rgb(216, 232, 125);" offset="0"/>
      <stop style="stop-color: rgb(242, 103, 75);" offset="0.5"/>
      <stop style="stop-color: rgb(209, 59, 156);" offset="1"/>
    </linearGradient>
  </defs>
  <path d="M0 416c0 35.3 28.7 64 64 64l320 0c35.3 0 64-28.7 64-64l0-320c0-35.3-28.7-64-64-64L64 32C28.7 32 0 60.7 0 96L0 416zM128 256c0-6.7 2.8-13 7.7-17.6l112-104c7-6.5 17.2-8.2 25.9-4.4s14.4 12.5 14.4 22l0 208c0 9.5-5.7 18.2-14.4 22s-18.9 2.1-25.9-4.4l-112-104c-4.9-4.5-7.7-10.9-7.7-17.6z" style="fill: url('#color-1-0');" transform="matrix(1, 0, 0, 1, 0, 7.105427357601002e-15)"/>
</svg>